<mxfile host="app.diagrams.net" modified="2021-07-15T06:59:51.657Z" agent="5.0 (Macintosh; Intel Mac OS X 10_15_7) AppleWebKit/605.1.15 (KHTML, like Gecko) Version/14.1 Safari/605.1.15" etag="reNeH1rPoVi2Xuz1n1Ku" version="14.8.6" type="github">
  <diagram id="C5RBs43oDa-KdzZeNtuy" name="Page-1">
    <mxGraphModel dx="1138" dy="894" grid="1" gridSize="10" guides="1" tooltips="1" connect="1" arrows="1" fold="1" page="1" pageScale="1" pageWidth="827" pageHeight="1169" math="0" shadow="0">
      <root>
        <mxCell id="WIyWlLk6GJQsqaUBKTNV-0" />
        <mxCell id="WIyWlLk6GJQsqaUBKTNV-1" parent="WIyWlLk6GJQsqaUBKTNV-0" />
        <mxCell id="sgoi3Rp6DOCz2PiR_Iyx-15" value="" style="rounded=0;whiteSpace=wrap;html=1;fillColor=#FFFFFF;dashed=1;" parent="WIyWlLk6GJQsqaUBKTNV-1" vertex="1">
          <mxGeometry x="60" y="150" width="820" height="440" as="geometry" />
        </mxCell>
        <mxCell id="sgoi3Rp6DOCz2PiR_Iyx-3" value="" style="edgeStyle=orthogonalEdgeStyle;rounded=0;orthogonalLoop=1;jettySize=auto;html=1;dashed=1;" parent="WIyWlLk6GJQsqaUBKTNV-1" source="sgoi3Rp6DOCz2PiR_Iyx-0" target="sgoi3Rp6DOCz2PiR_Iyx-2" edge="1">
          <mxGeometry relative="1" as="geometry" />
        </mxCell>
        <mxCell id="sgoi3Rp6DOCz2PiR_Iyx-0" value="源文件&lt;br&gt;.h .m .cpp" style="rounded=1;whiteSpace=wrap;html=1;fillColor=#E6D0DE;dashed=1;" parent="WIyWlLk6GJQsqaUBKTNV-1" vertex="1">
          <mxGeometry x="110" y="200" width="120" height="60" as="geometry" />
        </mxCell>
        <mxCell id="sgoi3Rp6DOCz2PiR_Iyx-5" value="" style="edgeStyle=orthogonalEdgeStyle;rounded=0;orthogonalLoop=1;jettySize=auto;html=1;dashed=1;" parent="WIyWlLk6GJQsqaUBKTNV-1" source="sgoi3Rp6DOCz2PiR_Iyx-2" target="sgoi3Rp6DOCz2PiR_Iyx-4" edge="1">
          <mxGeometry relative="1" as="geometry" />
        </mxCell>
        <mxCell id="sgoi3Rp6DOCz2PiR_Iyx-2" value="预编译" style="whiteSpace=wrap;html=1;rounded=1;fillColor=#E6D0DE;dashed=1;" parent="WIyWlLk6GJQsqaUBKTNV-1" vertex="1">
          <mxGeometry x="310" y="200" width="120" height="60" as="geometry" />
        </mxCell>
        <mxCell id="sgoi3Rp6DOCz2PiR_Iyx-7" value="" style="edgeStyle=orthogonalEdgeStyle;rounded=0;orthogonalLoop=1;jettySize=auto;html=1;dashed=1;" parent="WIyWlLk6GJQsqaUBKTNV-1" source="sgoi3Rp6DOCz2PiR_Iyx-4" target="sgoi3Rp6DOCz2PiR_Iyx-6" edge="1">
          <mxGeometry relative="1" as="geometry" />
        </mxCell>
        <mxCell id="sgoi3Rp6DOCz2PiR_Iyx-4" value="编译" style="whiteSpace=wrap;html=1;rounded=1;fillColor=#E6D0DE;dashed=1;" parent="WIyWlLk6GJQsqaUBKTNV-1" vertex="1">
          <mxGeometry x="510" y="200" width="120" height="60" as="geometry" />
        </mxCell>
        <mxCell id="sgoi3Rp6DOCz2PiR_Iyx-9" value="" style="edgeStyle=orthogonalEdgeStyle;rounded=0;orthogonalLoop=1;jettySize=auto;html=1;dashed=1;" parent="WIyWlLk6GJQsqaUBKTNV-1" source="sgoi3Rp6DOCz2PiR_Iyx-6" target="sgoi3Rp6DOCz2PiR_Iyx-8" edge="1">
          <mxGeometry relative="1" as="geometry" />
        </mxCell>
        <mxCell id="sgoi3Rp6DOCz2PiR_Iyx-6" value="汇编" style="whiteSpace=wrap;html=1;rounded=1;fillColor=#E6D0DE;dashed=1;" parent="WIyWlLk6GJQsqaUBKTNV-1" vertex="1">
          <mxGeometry x="710" y="200" width="120" height="60" as="geometry" />
        </mxCell>
        <mxCell id="sgoi3Rp6DOCz2PiR_Iyx-13" value="" style="edgeStyle=orthogonalEdgeStyle;rounded=0;orthogonalLoop=1;jettySize=auto;html=1;dashed=1;" parent="WIyWlLk6GJQsqaUBKTNV-1" source="sgoi3Rp6DOCz2PiR_Iyx-8" target="sgoi3Rp6DOCz2PiR_Iyx-12" edge="1">
          <mxGeometry relative="1" as="geometry" />
        </mxCell>
        <mxCell id="sgoi3Rp6DOCz2PiR_Iyx-8" value="链接" style="whiteSpace=wrap;html=1;rounded=1;fillColor=#D4E1F5;dashed=1;" parent="WIyWlLk6GJQsqaUBKTNV-1" vertex="1">
          <mxGeometry x="710" y="340" width="120" height="60" as="geometry" />
        </mxCell>
        <mxCell id="sgoi3Rp6DOCz2PiR_Iyx-11" style="edgeStyle=orthogonalEdgeStyle;rounded=0;orthogonalLoop=1;jettySize=auto;html=1;exitX=1;exitY=0.5;exitDx=0;exitDy=0;dashed=1;" parent="WIyWlLk6GJQsqaUBKTNV-1" source="sgoi3Rp6DOCz2PiR_Iyx-10" target="sgoi3Rp6DOCz2PiR_Iyx-8" edge="1">
          <mxGeometry relative="1" as="geometry" />
        </mxCell>
        <mxCell id="sgoi3Rp6DOCz2PiR_Iyx-10" value=".a .framework&amp;nbsp;" style="whiteSpace=wrap;html=1;rounded=1;fillColor=#FFF2CC;dashed=1;" parent="WIyWlLk6GJQsqaUBKTNV-1" vertex="1">
          <mxGeometry x="510" y="340" width="120" height="60" as="geometry" />
        </mxCell>
        <mxCell id="sgoi3Rp6DOCz2PiR_Iyx-12" value="可执行文件" style="whiteSpace=wrap;html=1;rounded=1;fillColor=#D5E8D4;dashed=1;" parent="WIyWlLk6GJQsqaUBKTNV-1" vertex="1">
          <mxGeometry x="710" y="480" width="120" height="60" as="geometry" />
        </mxCell>
      </root>
    </mxGraphModel>
  </diagram>
</mxfile>
